# xmcd
#
# Track frame offsets: 
#        183
#        52175
#        100408
#        140228
#        194415
#        222330
#        269668
#
# Disc length: 4124 seconds
#
# Revision: 12
# Processed by: cddbd v1.5.2PL0 Copyright (c) Steve Scherf et al.
# Submitted via: ExactAudioCopy v1.3
#
DISCID=7a101a07
DTITLE=The Borodin Trio - Ludwig van Beethoven - Complete Works
DYEAR=1984
DGENRE=Classical
TTITLE0=Piano Trio No. 5 in D major Op. 70 No. 1 ''Geister'' - 1. Alle
TTITLE0=gro vivace e con brio
TTITLE1=Piano Trio No. 5 in D major Op. 70 No. 1 ''Geister'' - 2. Larg
TTITLE1=o assai ed con espressione
TTITLE2=Piano Trio No. 5 in D major Op. 70 No. 1 ''Geister'' - 3. Pres
TTITLE2=to
TTITLE3=Piano Trio No. 6 in E flat major Op. 70 No. 2 - 1. Poco sosten
TTITLE3=uto-allegro ma non troppo
TTITLE4=Piano Trio No. 6 in E flat major Op. 70 No. 2 - 2. Allegretto
TTITLE5=Piano Trio No. 6 in E flat major Op. 70 No. 2 - 3. Allegretto 
TTITLE5=ma non troppo
TTITLE6=Piano Trio No. 6 in E flat major Op. 70 No. 2 - 4. Finale, all
TTITLE6=egro
EXTD=YEAR: 1984
EXTT0=
EXTT1=
EXTT2=
EXTT3=
EXTT4=
EXTT5=
EXTT6=
PLAYORDER=
